<?xml version="1.0" standalone="no"?>
<!DOCTYPE svg PUBLIC "-//W3C//DTD SVG 20010904//EN"
 "http://www.w3.org/TR/2001/REC-SVG-20010904/DTD/svg10.dtd">
<svg version="1.0" xmlns="http://www.w3.org/2000/svg"
 width="500.000000pt" height="500.000000pt" viewBox="0 0 500.000000 500.000000"
 preserveAspectRatio="xMidYMid meet">

<g transform="translate(0.000000,500.000000) scale(0.100000,-0.100000)"
fill="#000000" stroke="none">
<path d="M0 2500 l0 -2500 2500 0 2500 0 0 2500 0 2500 -2500 0 -2500 0 0
-2500z m2815 1626 c314 -76 543 -202 755 -415 224 -224 360 -481 422 -795 29
-148 31 -417 4 -551 -40 -203 -120 -399 -233 -569 -80 -121 -280 -325 -393
-403 -487 -331 -1108 -361 -1612 -77 -311 175 -563 471 -682 804 -65 178 -78
259 -83 490 -4 192 -2 226 17 320 82 403 312 746 656 979 148 99 377 191 564
225 119 21 485 17 585 -8z"/>
<path d="M2275 4105 c-572 -91 -1048 -513 -1204 -1068 -43 -154 -55 -262 -48
-449 9 -243 49 -403 153 -613 227 -459 710 -783 1214 -814 442 -27 832 116
1142 417 130 127 220 249 298 407 124 250 173 495 151 752 -33 383 -170 682
-431 944 -238 239 -496 371 -829 425 -105 17 -337 17 -446 -1z m-438 -890 l53
-24 20 30 c12 16 26 29 31 29 5 0 9 -59 9 -136 0 -151 -7 -163 -45 -71 -49
122 -119 173 -226 165 -48 -3 -65 -10 -89 -33 -59 -56 -64 -152 -11 -205 21
-21 51 -33 139 -54 106 -24 165 -48 202 -78 123 -102 129 -348 10 -466 -107
-107 -313 -123 -437 -33 l-40 29 -22 -39 c-12 -21 -29 -39 -37 -39 -12 0 -14
28 -14 160 0 91 4 160 9 160 5 0 19 -29 31 -65 44 -133 118 -207 225 -226 80
-15 137 0 186 50 39 39 64 106 54 144 -25 88 -44 101 -215 142 -185 44 -253
94 -280 206 -41 170 67 344 233 379 62 13 155 2 214 -25z m818 0 c110 -29 167
-89 180 -190 14 -105 -40 -197 -138 -234 l-52 -19 30 -11 c51 -19 79 -38 110
-76 29 -36 34 -67 44 -287 1 -19 27 -48 44 -48 6 0 30 21 54 47 47 50 63 51
43 3 -17 -40 -79 -95 -125 -110 -52 -17 -149 -9 -183 16 -51 38 -66 85 -72
240 -8 187 -25 214 -136 214 l-44 0 0 -215 0 -215 35 0 c24 0 35 -5 35 -15 0
-13 -28 -15 -191 -15 -148 0 -190 3 -187 13 3 6 21 13 41 15 l37 3 0 435 0
434 -40 0 c-29 0 -40 4 -40 15 0 22 469 22 555 0z m891 4 c83 -14 161 -62 187
-113 23 -44 27 -139 7 -177 -32 -62 -83 -96 -170 -114 l-55 -12 42 -7 c58 -10
142 -64 176 -112 38 -54 47 -147 23 -222 -22 -66 -85 -125 -157 -146 -76 -23
-569 -24 -569 -1 0 10 11 15 35 15 l35 0 0 435 0 435 -35 0 c-24 0 -35 5 -35
15 0 13 32 15 227 15 124 0 255 -5 289 -11z"/>
<path d="M2410 2994 l0 -206 55 4 c105 9 145 63 145 198 0 142 -51 210 -157
210 l-43 0 0 -206z"/>
<path d="M3330 3011 l0 -191 56 0 c66 0 89 10 109 51 37 70 31 250 -9 296 -20
23 -33 27 -90 31 l-66 4 0 -191z"/>
<path d="M3330 2560 l0 -230 69 0 c59 0 74 4 98 24 l28 24 3 159 c2 136 0 163
-15 193 -23 45 -54 60 -125 60 l-58 0 0 -230z"/>
</g>
</svg>
